<svg xmlns="http://www.w3.org/2000/svg" xmlns:xlink="http://www.w3.org/1999/xlink" viewBox="0 0 40.38 40.28"><defs><style>.cls-1{isolation:isolate;}.cls-2{mix-blend-mode:multiply;}.cls-26,.cls-3{fill:#fff;}.cls-3{opacity:0;}.cls-4{fill:#f7f7f6;opacity:0.05;}.cls-5{fill:#f2f1f0;opacity:0.1;}.cls-6{fill:#edeceb;opacity:0.14;}.cls-7{fill:#e8e7e6;opacity:0.19;}.cls-8{fill:#e3e2e1;opacity:0.24;}.cls-9{fill:#dedddc;opacity:0.29;}.cls-10{fill:#d9d9d7;opacity:0.33;}.cls-11{fill:#d4d4d2;opacity:0.38;}.cls-12{fill:#d0d0ce;opacity:0.43;}.cls-13{fill:#cccbca;opacity:0.48;}.cls-14{fill:#c7c7c5;opacity:0.52;}.cls-15{fill:#c3c3c1;opacity:0.57;}.cls-16{fill:#bebfbd;opacity:0.62;}.cls-17{fill:#babbb9;opacity:0.67;}.cls-18{fill:#b6b7b5;opacity:0.71;}.cls-19{fill:#b1b3b1;opacity:0.76;}.cls-20{fill:#adafad;opacity:0.81;}.cls-21{fill:#a9aba9;opacity:0.86;}.cls-22{fill:#a5a7a5;opacity:0.9;}.cls-23{fill:#a1a4a1;opacity:0.95;}.cls-24{fill:#9da09d;}.cls-25{fill:#b5bcbe;}.cls-27{fill:url(#linear-gradient);}.cls-28{fill:none;stroke:#5e97ca;stroke-linejoin:round;}</style><linearGradient id="linear-gradient" x1="34.51" y1="4.5" x2="14.01" y2="27.63" gradientUnits="userSpaceOnUse"><stop offset="0" stop-color="#d3d9d9"/><stop offset="1" stop-color="#fff"/></linearGradient></defs><title>PLATAFORMA_SUPERPRECIO</title><g class="cls-1"><g id="Layer_1" data-name="Layer 1"><g id="_4" data-name="4"><g class="cls-2"><path class="cls-3" d="M34.12,19.7A17.23,17.23,0,1,1,20.58,6.16,17.27,17.27,0,0,1,34.12,19.7Z"/><path class="cls-4" d="M34.38,19.39A17.17,17.17,0,1,1,20.89,5.91,17.17,17.17,0,0,1,34.38,19.39Z"/><path class="cls-5" d="M34.63,19.09A17.09,17.09,0,0,1,1.1,25.76a17.41,17.41,0,0,1,0-6.67,17.09,17.09,0,0,1,33.53,0Z"/><path class="cls-6" d="M34.89,18.78a17,17,0,0,1-13.38,20,17.25,17.25,0,0,1-6.64,0,17,17,0,0,1,0-33.41,17.25,17.25,0,0,1,6.64,0A17,17,0,0,1,34.89,18.78Z"/><path class="cls-7" d="M35.15,18.48a17.15,17.15,0,0,1,0,6.62A17,17,0,0,1,21.82,38.42a16.77,16.77,0,0,1-6.62,0A17,17,0,0,1,1.88,25.1a16.77,16.77,0,0,1,0-6.62A17,17,0,0,1,15.2,5.15a17.15,17.15,0,0,1,6.62,0A17,17,0,0,1,35.15,18.48Z"/><path class="cls-8" d="M35.41,18.17A16.89,16.89,0,0,1,22.13,38a16.62,16.62,0,0,1-6.59,0A16.89,16.89,0,1,1,35.41,18.17Z"/><path class="cls-9" d="M35.67,17.87A16.83,16.83,0,1,1,15.87,4.65a16.52,16.52,0,0,1,6.57,0A16.82,16.82,0,0,1,35.67,17.87Z"/><path class="cls-10" d="M35.92,17.56A16.76,16.76,0,1,1,22.75,4.39,16.79,16.79,0,0,1,35.92,17.56Z"/><path class="cls-11" d="M36.18,17.26A16.7,16.7,0,1,1,23.06,4.14,16.64,16.64,0,0,1,36.18,17.26Z"/><path class="cls-12" d="M36.44,17A16.63,16.63,0,0,1,23.37,36.52a16.87,16.87,0,0,1-6.49,0A16.63,16.63,0,1,1,36.44,17Z"/><path class="cls-13" d="M36.7,16.65a16.77,16.77,0,0,1,0,6.47,16.56,16.56,0,0,1-13,13A16.56,16.56,0,0,1,4.2,16.65a16.56,16.56,0,0,1,13-13,16.77,16.77,0,0,1,6.47,0A16.59,16.59,0,0,1,36.7,16.65Z"/><path class="cls-14" d="M37,16.35a16.49,16.49,0,0,1-13,19.4,16.24,16.24,0,0,1-6.44,0A16.5,16.5,0,1,1,37,16.35Z"/><path class="cls-15" d="M37.21,16A16.44,16.44,0,1,1,24.3,3.13,16.51,16.51,0,0,1,37.21,16Z"/><path class="cls-16" d="M37.47,15.74A16.37,16.37,0,0,1,5.35,22.13a16.75,16.75,0,0,1,0-6.39,16.37,16.37,0,0,1,32.12,0Z"/><path class="cls-17" d="M37.73,15.43A16.31,16.31,0,1,1,24.92,2.62,16.26,16.26,0,0,1,37.73,15.43Z"/><path class="cls-18" d="M38,15.13a16.49,16.49,0,0,1,0,6.34A16.26,16.26,0,0,1,25.23,34.23a16.49,16.49,0,0,1-6.34,0A16.24,16.24,0,1,1,38,15.13Z"/><path class="cls-19" d="M38.24,14.82a16.17,16.17,0,0,1-19,19A16.18,16.18,0,0,1,6.51,21.14a16.39,16.39,0,0,1,0-6.32A16.2,16.2,0,0,1,19.22,2.11a16.39,16.39,0,0,1,6.32,0A16.18,16.18,0,0,1,38.24,14.82Z"/><path class="cls-20" d="M38.5,14.52a15.81,15.81,0,0,1,0,6.28A16.09,16.09,0,0,1,25.84,33.46a15.81,15.81,0,0,1-6.28,0A16.11,16.11,0,1,1,38.5,14.52Z"/><path class="cls-21" d="M38.76,14.21A16.05,16.05,0,1,1,26.15,1.61,16.08,16.08,0,0,1,38.76,14.21Z"/><path class="cls-22" d="M39,13.91A16,16,0,1,1,20.23,1.35a16.32,16.32,0,0,1,6.23,0A16,16,0,0,1,39,13.91Z"/><path class="cls-23" d="M39.28,13.61a16.17,16.17,0,0,1,0,6.2,15.91,15.91,0,1,1,0-6.2Z"/><path class="cls-24" d="M39.53,13.3a15.68,15.68,0,0,1,0,6.18A15.85,15.85,0,0,1,27.08,31.94a16.06,16.06,0,0,1-6.18,0A15.85,15.85,0,0,1,8.45,19.48,15.84,15.84,0,0,1,20.9.85,15.84,15.84,0,0,1,39.53,13.3Z"/></g><path class="cls-25" d="M39.21,13.63a16.06,16.06,0,0,1,0,6.18,15.85,15.85,0,0,1-31.09,0A15.85,15.85,0,0,1,26.76,1.18,15.85,15.85,0,0,1,39.21,13.63Z"/><path class="cls-26" d="M40.08,12.76a16.06,16.06,0,0,1,0,6.18A15.85,15.85,0,0,1,9,18.94a15.68,15.68,0,0,1,0-6.18A15.87,15.87,0,0,1,21.44.3a16.12,16.12,0,0,1,6.19,0A15.87,15.87,0,0,1,40.08,12.76Z"/><path class="cls-27" d="M39.65,13.15a16.12,16.12,0,0,1,0,6.19A15.86,15.86,0,0,1,27.19,31.79a16.06,16.06,0,0,1-6.18,0A15.85,15.85,0,0,1,21,.7a15.68,15.68,0,0,1,6.18,0A15.86,15.86,0,0,1,39.65,13.15Z"/></g><polygon class="cls-28" points="20.09 16.24 20.09 9.34 25.73 12.79 31.36 16.24 25.73 19.7 20.09 23.15 20.09 16.24"/></g></g></svg>